<svg width="23" height="21" viewBox="0 0 23 21" fill="none" xmlns="http://www.w3.org/2000/svg">
<path d="M11.2426 2.75736L10.5355 3.46447L11.2426 4.17157L11.9497 3.46447L11.2426 2.75736ZM2.75736 2.75736L3.46447 3.46447L3.46447 3.46447L2.75736 2.75736ZM19.7279 2.75736L19.0208 3.46447L19.0208 3.46447L19.7279 2.75736ZM19.7279 11.2426L19.0208 10.5355L19.0208 10.5355L19.7279 11.2426ZM11.9498 19.0208L12.6569 19.7279L12.6569 19.7279L11.9498 19.0208ZM10.5355 19.0208L9.82843 19.7279L9.82843 19.7279L10.5355 19.0208ZM2.75736 11.2426L3.46447 10.5355L3.46447 10.5355L2.75736 11.2426ZM11.9497 2.05025C9.21608 -0.683418 4.78392 -0.683418 2.05025 2.05025L3.46447 3.46447C5.41709 1.51184 8.58291 1.51184 10.5355 3.46447L11.9497 2.05025ZM11.9497 3.46447C13.9024 1.51184 17.0682 1.51185 19.0208 3.46447L20.435 2.05025C17.7014 -0.683418 13.2692 -0.683416 10.5355 2.05025L11.9497 3.46447ZM19.0208 3.46447C20.9734 5.41709 20.9734 8.58291 19.0208 10.5355L20.435 11.9498C23.1687 9.21608 23.1687 4.78392 20.435 2.05025L19.0208 3.46447ZM12.6569 19.7279L20.435 11.9498L19.0208 10.5355L11.2426 18.3137L12.6569 19.7279ZM9.82843 19.7279C10.6095 20.509 11.8758 20.509 12.6569 19.7279L11.2426 18.3137H11.2426L9.82843 19.7279ZM2.05025 11.9497L9.82843 19.7279L11.2426 18.3137L3.46447 10.5355L2.05025 11.9497ZM2.05025 2.05025C-0.683418 4.78392 -0.683418 9.21608 2.05025 11.9497L3.46447 10.5355C1.51184 8.58291 1.51184 5.41709 3.46447 3.46447L2.05025 2.05025Z" fill="#F56B2A"/>
</svg>
