<svg width="24" height="21" viewBox="0 0 24 21" fill="none" xmlns="http://www.w3.org/2000/svg">
<path d="M12 2.75736L11.2929 3.46447L12 4.17157L12.7071 3.46447L12 2.75736ZM3.51473 2.75736L4.22184 3.46447L3.51473 2.75736ZM20.4853 2.75736L19.7782 3.46447V3.46447L20.4853 2.75736ZM20.4853 11.2426L19.7782 10.5355L20.4853 11.2426ZM12.7071 19.0208L13.4142 19.7279L12.7071 19.0208ZM11.2929 19.0208L10.5858 19.7279L11.2929 19.0208ZM3.51473 11.2426L4.22184 10.5355L3.51473 11.2426ZM12.7071 2.05025C9.97345 -0.683418 5.5413 -0.683418 2.80763 2.05025L4.22184 3.46447C6.17446 1.51184 9.34029 1.51184 11.2929 3.46447L12.7071 2.05025ZM12.7071 3.46447C14.6598 1.51184 17.8256 1.51185 19.7782 3.46447L21.1924 2.05025C18.4587 -0.683418 14.0266 -0.683416 11.2929 2.05025L12.7071 3.46447ZM19.7782 3.46447C21.7308 5.41709 21.7308 8.58291 19.7782 10.5355L21.1924 11.9498C23.9261 9.21608 23.9261 4.78392 21.1924 2.05025L19.7782 3.46447ZM13.4142 19.7279L21.1924 11.9498L19.7782 10.5355L12 18.3137L13.4142 19.7279ZM10.5858 19.7279C11.3669 20.509 12.6332 20.509 13.4142 19.7279L12 18.3137L10.5858 19.7279ZM2.80763 11.9497L10.5858 19.7279L12 18.3137L4.22184 10.5355L2.80763 11.9497ZM2.80763 2.05025C0.0739582 4.78392 0.0739582 9.21608 2.80763 11.9497L4.22184 10.5355C2.26922 8.58291 2.26922 5.41709 4.22184 3.46447L2.80763 2.05025Z" fill="#8F929B"/>
</svg>
