<svg width="22" height="21" viewBox="0 0 22 21" fill="none" xmlns="http://www.w3.org/2000/svg">
<path fill-rule="evenodd" clip-rule="evenodd" d="M1.34254 7.23258C0.488591 7.99165 0 9.07967 0 10.2222V18.0206C0 19.4718 1.17643 20.6482 2.62762 20.6482H19.3724C20.8236 20.6482 22 19.4718 22 18.0206V10.2222C22 9.07967 21.5114 7.99165 20.6575 7.23258L13.6575 1.01036C12.1419 -0.336788 9.85809 -0.336787 8.34254 1.01036L1.34254 7.23258ZM11.75 11.4599C11.75 11.0457 11.4142 10.7099 11 10.7099C10.5858 10.7099 10.25 11.0457 10.25 11.4599V16.1406C10.25 16.5548 10.5858 16.8906 11 16.8906C11.4142 16.8906 11.75 16.5548 11.75 16.1406V11.4599Z" fill="#8F929B"/>
</svg>
