<svg width="22" height="21" viewBox="0 0 22 21" fill="none" xmlns="http://www.w3.org/2000/svg">
<path fill-rule="evenodd" clip-rule="evenodd" d="M1.34254 7.58442C0.488591 8.34349 0 9.43151 0 10.5741V18.3724C0 19.8236 1.17643 21 2.62762 21H19.3724C20.8236 21 22 19.8236 22 18.3724V10.5741C22 9.43151 21.5114 8.34349 20.6575 7.58442L13.6575 1.3622C12.1419 0.0150492 9.85809 0.01505 8.34254 1.3622L1.34254 7.58442ZM11.75 11.8118C11.75 11.3976 11.4142 11.0618 11 11.0618C10.5858 11.0618 10.25 11.3976 10.25 11.8118V16.4924C10.25 16.9066 10.5858 17.2424 11 17.2424C11.4142 17.2424 11.75 16.9066 11.75 16.4924V11.8118Z" fill="#F56B2A"/>
</svg>
