<svg width="12" height="14" viewBox="0 0 12 14" fill="none" xmlns="http://www.w3.org/2000/svg">
<path fill-rule="evenodd" clip-rule="evenodd" d="M7.55925 12.6269C10.117 10.408 12 8.77438 12 6C12 2.68629 9.31371 0 6 0C2.68629 0 0 2.68629 0 6C0 8.77438 1.88302 10.408 4.44075 12.6269C4.72723 12.8754 5.02218 13.1313 5.3239 13.397C5.7096 13.7366 6.2904 13.7366 6.6761 13.397C6.97782 13.1313 7.27277 12.8754 7.55925 12.6269ZM6 8C7.10457 8 8 7.10457 8 6C8 4.89543 7.10457 4 6 4C4.89543 4 4 4.89543 4 6C4 7.10457 4.89543 8 6 8Z" fill="#9093A2"/>
</svg>
