<svg width="12" height="24" viewBox="0 0 12 24" fill="none" xmlns="http://www.w3.org/2000/svg">
<path fill-rule="evenodd" clip-rule="evenodd" d="M7.55925 17.6269C10.117 15.408 12 13.7744 12 11C12 7.68629 9.31371 5 6 5C2.68629 5 0 7.68629 0 11C0 13.7744 1.88302 15.408 4.44075 17.6269C4.72723 17.8754 5.02218 18.1313 5.3239 18.397C5.7096 18.7366 6.2904 18.7366 6.6761 18.397C6.97782 18.1313 7.27277 17.8754 7.55925 17.6269ZM6 13C7.10457 13 8 12.1046 8 11C8 9.89543 7.10457 9 6 9C4.89543 9 4 9.89543 4 11C4 12.1046 4.89543 13 6 13Z" fill="#9093A2"/>
</svg>
