<svg width="24" height="20" viewBox="0 0 24 20" fill="none" xmlns="http://www.w3.org/2000/svg">
<path d="M2.01454 4.62859C1.61436 2.76105 3.03802 1 4.94795 1H19.0521C20.962 1 22.3856 2.76105 21.9855 4.62859L21.6286 6.29393C21.5756 6.54121 21.4916 6.78079 21.3785 7.00699L21 7.76393C20.2962 9.17157 20.2962 10.8284 21 12.2361L21.3785 12.993C21.4916 13.2192 21.5756 13.4588 21.6286 13.7061L21.9855 15.3714C22.3856 17.2389 20.962 19 19.0521 19H4.94795C3.03802 19 1.61436 17.2389 2.01454 15.3714L2.3714 13.7061C2.42439 13.4588 2.50843 13.2192 2.62153 12.993L3 12.2361C3.70382 10.8284 3.70382 9.17157 3 7.76393L2.62153 7.00699C2.50843 6.78079 2.42439 6.54121 2.3714 6.29393L2.01454 4.62859Z" stroke="#8F929B" stroke-width="2"/>
<path d="M10 1.5V18.5" stroke="#8F929B" stroke-width="2" stroke-linecap="round" stroke-dasharray="5 5"/>
</svg>
